<svg xmlns="http://www.w3.org/2000/svg" viewBox="0 0 39.27 39.25"><defs><style>.cls-1{fill:#28b474;}.cls-2{fill:#fefefe;}</style></defs><g id="Layer_2" data-name="Layer 2"><g id="Layer_1-2" data-name="Layer 1"><path class="cls-1" d="M39.27,19.63A19.64,19.64,0,1,1,19.85,0,19.49,19.49,0,0,1,39.27,19.63Z"/><path class="cls-2" d="M26.4,9a3.87,3.87,0,0,1,0,7.73A3.87,3.87,0,1,1,26.4,9Z"/><path class="cls-2" d="M26.43,22.49a3.78,3.78,0,0,1,3.82,3.89,3.85,3.85,0,0,1-3.89,3.85A4,4,0,0,1,22.5,26.3,3.87,3.87,0,0,1,26.43,22.49Z"/><path class="cls-2" d="M16.78,12.89a3.81,3.81,0,0,1-3.85,3.86,3.87,3.87,0,1,1,0-7.73A3.77,3.77,0,0,1,16.78,12.89Z"/><path class="cls-2" d="M16.78,26.39a3.84,3.84,0,0,1-3.89,3.83,3.93,3.93,0,0,1-3.84-3.93A3.84,3.84,0,0,1,13,22.49,3.75,3.75,0,0,1,16.78,26.39Z"/></g></g></svg>