<svg xmlns="http://www.w3.org/2000/svg" viewBox="0 0 39.27 39.25"><defs><style>.cls-1{fill:#28b474;}.cls-2{fill:#fefefe;}</style></defs><g id="Layer_2" data-name="Layer 2"><g id="Layer_1-2" data-name="Layer 1"><path class="cls-1" d="M39.27,19.64A19.64,19.64,0,1,1,20,0,19.61,19.61,0,0,1,39.27,19.64Z"/><path class="cls-2" d="M27.33,15.77a3.86,3.86,0,1,1,0-7.72,3.86,3.86,0,1,1,0,7.72Z"/><path class="cls-2" d="M23.5,19.57a3.87,3.87,0,1,1-3.9-3.82A3.84,3.84,0,0,1,23.5,19.57Z"/><path class="cls-2" d="M27.37,23.46a3.82,3.82,0,0,1,3.84,3.89,3.87,3.87,0,1,1-7.74-.09A3.78,3.78,0,0,1,27.37,23.46Z"/><path class="cls-2" d="M15.8,11.86A3.79,3.79,0,0,1,12,15.77a3.86,3.86,0,1,1-.11-7.72A3.81,3.81,0,0,1,15.8,11.86Z"/><path class="cls-2" d="M11.87,23.46a3.77,3.77,0,0,1,3.93,3.77,3.87,3.87,0,0,1-3.78,4,3.93,3.93,0,0,1-4-3.82A3.83,3.83,0,0,1,11.87,23.46Z"/></g></g></svg>