<svg xmlns="http://www.w3.org/2000/svg" viewBox="0 0 39.27 39.27"><defs><style>.cls-1{fill:#28b474;}.cls-2{fill:#fefefe;}</style></defs><g id="Layer_2" data-name="Layer 2"><g id="Layer_1-2" data-name="Layer 1"><path class="cls-1" d="M39.27,19.68A19.64,19.64,0,1,1,19.85,0,19.58,19.58,0,0,1,39.27,19.68Z"/><path class="cls-2" d="M19.65,23.5a3.85,3.85,0,0,1-3.88-3.86,3.89,3.89,0,0,1,3.87-3.88,3.87,3.87,0,0,1,0,7.74Z"/><path class="cls-2" d="M31,12.11A3.81,3.81,0,0,1,27.18,16,3.88,3.88,0,1,1,31,12.11Z"/><path class="cls-2" d="M16,27.14A3.75,3.75,0,0,1,12.14,31,3.85,3.85,0,0,1,8.27,27.1a3.94,3.94,0,0,1,3.91-3.87A3.86,3.86,0,0,1,16,27.14Z"/></g></g></svg>