<svg xmlns="http://www.w3.org/2000/svg" viewBox="0 0 39.27 39.27"><defs><style>.cls-1{fill:#28b474;}.cls-2{fill:#fefefe;}</style></defs><g id="Layer_2" data-name="Layer 2"><g id="Layer_1-2" data-name="Layer 1"><path class="cls-1" d="M39.27,19.78A19.64,19.64,0,1,1,0,19.3C.1,8.44,9-.1,20.19,0,30.68.1,39.36,9.1,39.27,19.78Z"/><path class="cls-2" d="M25,18.51a3.82,3.82,0,0,1-3.83-3.9,3.88,3.88,0,1,1,7.75.1A3.82,3.82,0,0,1,25,18.51Z"/><path class="cls-2" d="M14.2,21.67a3.87,3.87,0,1,1-.07,7.74,3.87,3.87,0,0,1,.07-7.74Z"/></g></g></svg>