<svg xmlns="http://www.w3.org/2000/svg" viewBox="0 0 39.27 39.25"><defs><style>.cls-1{fill:#28b474;}.cls-2{fill:#fefefe;}</style></defs><g id="Layer_2" data-name="Layer 2"><g id="Layer_1-2" data-name="Layer 1"><path class="cls-1" d="M39.27,19.59A19.64,19.64,0,1,1,19.67,0,19.6,19.6,0,0,1,39.27,19.59Z"/><path class="cls-2" d="M16.88,28a3.87,3.87,0,0,1,.1,7.74,3.87,3.87,0,0,1-.1-7.74Z"/><path class="cls-2" d="M28.26,24.31a3.83,3.83,0,0,1-3.8,3.93,3.87,3.87,0,1,1-.11-7.73A3.79,3.79,0,0,1,28.26,24.31Z"/><path class="cls-2" d="M18.74,14.82a3.85,3.85,0,0,1-3.83,3.91A3.9,3.9,0,0,1,11,14.88,3.85,3.85,0,0,1,14.86,11,3.76,3.76,0,0,1,18.74,14.82Z"/><path class="cls-2" d="M11.27,22.4a3.87,3.87,0,1,1-3.79-3.94A3.83,3.83,0,0,1,11.27,22.4Z"/><path class="cls-2" d="M35.76,16.89A3.88,3.88,0,1,1,31.88,13,3.85,3.85,0,0,1,35.76,16.89Z"/><path class="cls-2" d="M26.23,7.38a3.87,3.87,0,1,1-3.86-3.87A3.85,3.85,0,0,1,26.23,7.38Z"/></g></g></svg>